ffmpeg started on 2025-06-30 at 14:37:37
Report written to "D:\Convert\FFMetrics\reports\psnr_report-6.txt"
Log level: 32
Command line:
ffmpeg -hide_banner -nostdin -i "G:\\\xc0\xed\xe8\xec\xe5\\\xce\xed\xe3\xee\xe8\xed\xe3\xe8\\!_37_\xc7\xe8\xec\xe0_2025\\JamClub\\\xc3\xee\xf1\xef\xee\xe4\xe8\xed \xe8 \xef\xb8\xf1\\JamClub_Tono_to_Inu_Woof_Woof!_S01E07_1080p_HEVC.mkv" -i "G:\\\xc0\xed\xe8\xec\xe5\\\xce\xed\xe3\xee\xe8\xed\xe3\xe8\\!_37_\xc7\xe8\xec\xe0_2025\\JamClub\\\xc3\xee\xf1\xef\xee\xe4\xe8\xed \xe8 \xef\xb8\xf1\\JamClub_Tono_to_Inu_Woof_Woof!_S01E07_1080p.mp4" -lavfi "[0:v]settb=AVTB,setpts=PTS-STARTPTS,format=pix_fmts=yuv420p10,fps=24000/1001,scale=1920:1080:flags=bicubic[main];[1:v]settb=AVTB,setpts=PTS-STARTPTS,format=pix_fmts=yuv420p,fps=24000/1001,scale=1920:1080:flags=bicubic[ref];[main][ref]psnr=eof_action=endall:stats_file='D\\:/Convert/FFMetrics/logs/psnr_logfile-6.txt'" -f null -
Input #0, matroska,webm, from 'G:\Аниме\Онгоинги\!_37_Зима_2025\JamClub\Господин и пёс\JamClub_Tono_to_Inu_Woof_Woof!_S01E07_1080p_HEVC.mkv':
  Metadata:
    COMPATIBLE_BRANDS: qt  
    MAJOR_BRAND     : qt  
    MINOR_VERSION   : 512
    ENCODER         : Lavf61.7.100
  Duration: 00:02:53.78, start: -0.021000, bitrate: 1880 kb/s
  Stream #0:0(eng): Video: hevc (Main 10), yuv420p10le(tv, bt709, progressive), 1920x1080 [SAR 1:1 DAR 16:9], 23.98 fps, 23.98 tbr, 1k tbn (default)
      Metadata:
        HANDLER_NAME    : VideoHandler
        VENDOR_ID       : FFMP
        ENCODER         : Lavc61.19.100 libx265
        BPS             : 1688719
        DURATION        : 00:02:53.756708333
        NUMBER_OF_FRAMES: 4166
        NUMBER_OF_BYTES : 36678151
        _STATISTICS_WRITING_APP: mkvpropedit v66.0.0 ('Josie') 64-bit
        _STATISTICS_WRITING_DATE_UTC: 2025-06-28 15:51:27
        _STATISTICS_TAGS: BPS DURATION NUMBER_OF_FRAMES NUMBER_OF_BYTES
  Stream #0:1(eng): Audio: aac (LC), 48000 Hz, stereo, fltp (default)
      Metadata:
        HANDLER_NAME    : SoundHandler
        VENDOR_ID       : [0][0][0][0]
        ENCODER         : Lavc61.19.100 aac
        BPS             : 188127
        DURATION        : 00:02:53.760000000
        NUMBER_OF_FRAMES: 8146
        NUMBER_OF_BYTES : 4086130
        _STATISTICS_WRITING_APP: mkvpropedit v66.0.0 ('Josie') 64-bit
        _STATISTICS_WRITING_DATE_UTC: 2025-06-28 15:51:27
        _STATISTICS_TAGS: BPS DURATION NUMBER_OF_FRAMES NUMBER_OF_BYTES
Input #1, mov,mp4,m4a,3gp,3g2,mj2, from 'G:\Аниме\Онгоинги\!_37_Зима_2025\JamClub\Господин и пёс\JamClub_Tono_to_Inu_Woof_Woof!_S01E07_1080p.mp4':
  Metadata:
    major_brand     : qt  
    minor_version   : 512
    compatible_brands: qt  
    encoder         : Lavf54.18.100
  Duration: 00:02:53.76, start: 0.000000, bitrate: 2085 kb/s
  Stream #1:0[0x1](eng): Video: h264 (High) (avc1 / 0x31637661), yuv420p(progressive), 1920x1080 [SAR 1:1 DAR 16:9], 1952 kb/s, 23.98 fps, 23.98 tbr, 24k tbn (default)
      Metadata:
        handler_name    : VideoHandler
        vendor_id       : FFMP
        encoder         : libx264
  Stream #1:1[0x2](eng): Audio: aac (LC) (mp4a / 0x6134706D), 48000 Hz, stereo, fltp, 128 kb/s (default)
      Metadata:
        handler_name    : SoundHandler
        vendor_id       : [0][0][0][0]
Stream mapping:
  Stream #0:0 (hevc) -> settb:default
  Stream #1:0 (h264) -> settb:default
  psnr:default -> Stream #0:0 (wrapped_avframe)
  Stream #0:1 -> #0:1 (aac (native) -> pcm_s16le (native))
[swscaler @ 0000029a715f9c00] No accelerated colorspace conversion found from yuv420p to bgr48le.
[swscaler @ 0000029a71706f40] No accelerated colorspace conversion found from yuv420p to bgr48le.
[swscaler @ 0000029a718ab680] No accelerated colorspace conversion found from yuv420p to bgr48le.
[swscaler @ 0000029a719b92c0] No accelerated colorspace conversion found from yuv420p to bgr48le.
[swscaler @ 0000029a71a79100] No accelerated colorspace conversion found from yuv420p to bgr48le.
[swscaler @ 0000029a71c44200] No accelerated colorspace conversion found from yuv420p to bgr48le.
[swscaler @ 0000029a71d36140] No accelerated colorspace conversion found from yuv420p to bgr48le.
[swscaler @ 0000029a71ee6100] No accelerated colorspace conversion found from yuv420p to bgr48le.
[swscaler @ 0000029a77da5040] No accelerated colorspace conversion found from yuv420p to bgr48le.
[swscaler @ 0000029a77fca200] No accelerated colorspace conversion found from yuv420p to bgr48le.
[swscaler @ 0000029a77fe41c0] No accelerated colorspace conversion found from yuv420p to bgr48le.
[swscaler @ 0000029a780eb840] No accelerated colorspace conversion found from yuv420p to bgr48le.
[swscaler @ 0000029a781dcc80] No accelerated colorspace conversion found from yuv420p to bgr48le.
[swscaler @ 0000029a784ba040] No accelerated colorspace conversion found from yuv420p to bgr48le.
[swscaler @ 0000029a785abc80] No accelerated colorspace conversion found from yuv420p to bgr48le.
[swscaler @ 0000029a785fa040] No accelerated colorspace conversion found from yuv420p to bgr48le.
Output #0, null, to 'pipe:':
  Metadata:
    COMPATIBLE_BRANDS: qt  
    MAJOR_BRAND     : qt  
    MINOR_VERSION   : 512
    encoder         : Lavf61.7.100
  Stream #0:0: Video: wrapped_avframe, yuv420p10le(tv, bt709, progressive), 1920x1080 [SAR 1:1 DAR 16:9], q=2-31, 200 kb/s, 23.98 fps, 23.98 tbn
      Metadata:
        encoder         : Lavc61.19.100 wrapped_avframe
  Stream #0:1(eng): Audio: pcm_s16le, 48000 Hz, stereo, s16, 1536 kb/s (default)
      Metadata:
        HANDLER_NAME    : SoundHandler
        VENDOR_ID       : [0][0][0][0]
        _STATISTICS_TAGS: BPS DURATION NUMBER_OF_FRAMES NUMBER_OF_BYTES
        BPS             : 188127
        DURATION        : 00:02:53.760000000
        NUMBER_OF_FRAMES: 8146
        NUMBER_OF_BYTES : 4086130
        _STATISTICS_WRITING_APP: mkvpropedit v66.0.0 ('Josie') 64-bit
        _STATISTICS_WRITING_DATE_UTC: 2025-06-28 15:51:27
        encoder         : Lavc61.19.100 pcm_s16le
frame=   29 fps=0.0 q=-0.0 size=N/A time=00:00:01.20 bitrate=N/A speed=2.37x    frame=   66 fps= 64 q=-0.0 size=N/A time=00:00:02.75 bitrate=N/A speed=2.66x    frame=  107 fps= 68 q=-0.0 size=N/A time=00:00:04.46 bitrate=N/A speed=2.86x    frame=  141 fps= 68 q=-0.0 size=N/A time=00:00:05.88 bitrate=N/A speed=2.84x    frame=  182 fps= 70 q=-0.0 size=N/A time=00:00:07.59 bitrate=N/A speed=2.92x    frame=  211 fps= 68 q=-0.0 size=N/A time=00:00:08.80 bitrate=N/A speed=2.83x    frame=  256 fps= 71 q=-0.0 size=N/A time=00:00:10.67 bitrate=N/A speed=2.95x    frame=  294 fps= 71 q=-0.0 size=N/A time=00:00:12.26 bitrate=N/A speed=2.96x    frame=  332 fps= 71 q=-0.0 size=N/A time=00:00:13.84 bitrate=N/A speed=2.97x    frame=  368 fps= 71 q=-0.0 size=N/A time=00:00:15.34 bitrate=N/A speed=2.97x    frame=  399 fps= 70 q=-0.0 size=N/A time=00:00:16.64 bitrate=N/A speed=2.93x    frame=  435 fps= 70 q=-0.0 size=N/A time=00:00:18.14 bitrate=N/A speed=2.93x    frame=  476 fps= 71 q=-0.0 size=N/A time=00:00:19.85 bitrate=N/A speed=2.95x    frame=  522 fps= 72 q=-0.0 size=N/A time=00:00:21.77 bitrate=N/A speed=3.01x    frame=  560 fps= 72 q=-0.0 size=N/A time=00:00:23.35 bitrate=N/A speed=3.01x    frame=  598 fps= 72 q=-0.0 size=N/A time=00:00:24.94 bitrate=N/A speed=3.02x    frame=  636 fps= 72 q=-0.0 size=N/A time=00:00:26.52 bitrate=N/A speed=3.02x    frame=  669 fps= 72 q=-0.0 size=N/A time=00:00:27.90 bitrate=N/A speed=   3x    frame=  706 fps= 72 q=-0.0 size=N/A time=00:00:29.44 bitrate=N/A speed=   3x    frame=  751 fps= 73 q=-0.0 size=N/A time=00:00:31.32 bitrate=N/A speed=3.03x    frame=  789 fps= 73 q=-0.0 size=N/A time=00:00:32.90 bitrate=N/A speed=3.04x    frame=  821 fps= 72 q=-0.0 size=N/A time=00:00:34.24 bitrate=N/A speed=3.01x    frame=  866 fps= 73 q=-0.0 size=N/A time=00:00:36.11 bitrate=N/A speed=3.04x    frame=  905 fps= 73 q=-0.0 size=N/A time=00:00:37.74 bitrate=N/A speed=3.05x    frame=  945 fps= 73 q=-0.0 size=N/A time=00:00:39.41 bitrate=N/A speed=3.05x    frame=  983 fps= 73 q=-0.0 size=N/A time=00:00:40.99 bitrate=N/A speed=3.05x    frame= 1021 fps= 73 q=-0.0 size=N/A time=00:00:42.58 bitrate=N/A speed=3.05x    frame= 1059 fps= 73 q=-0.0 size=N/A time=00:00:44.16 bitrate=N/A speed=3.06x    frame= 1096 fps= 73 q=-0.0 size=N/A time=00:00:45.71 bitrate=N/A speed=3.06x    frame= 1135 fps= 73 q=-0.0 size=N/A time=00:00:47.33 bitrate=N/A speed=3.06x    frame= 1167 fps= 73 q=-0.0 size=N/A time=00:00:48.67 bitrate=N/A speed=3.04x    frame= 1214 fps= 73 q=-0.0 size=N/A time=00:00:50.63 bitrate=N/A speed=3.07x    frame= 1248 fps= 73 q=-0.0 size=N/A time=00:00:52.05 bitrate=N/A speed=3.06x    frame= 1289 fps= 73 q=-0.0 size=N/A time=00:00:53.76 bitrate=N/A speed=3.06x    frame= 1327 fps= 73 q=-0.0 size=N/A time=00:00:55.34 bitrate=N/A speed=3.06x    frame= 1362 fps= 73 q=-0.0 size=N/A time=00:00:56.80 bitrate=N/A speed=3.06x    frame= 1394 fps= 73 q=-0.0 size=N/A time=00:00:58.14 bitrate=N/A speed=3.04x    frame= 1443 fps= 74 q=-0.0 size=N/A time=00:01:00.18 bitrate=N/A speed=3.07x    frame= 1480 fps= 74 q=-0.0 size=N/A time=00:01:01.72 bitrate=N/A speed=3.07x    frame= 1515 fps= 73 q=-0.0 size=N/A time=00:01:03.18 bitrate=N/A speed=3.06x    frame= 1557 fps= 74 q=-0.0 size=N/A time=00:01:04.93 bitrate=N/A speed=3.07x    frame= 1590 fps= 73 q=-0.0 size=N/A time=00:01:06.31 bitrate=N/A speed=3.06x    frame= 1631 fps= 74 q=-0.0 size=N/A time=00:01:08.02 bitrate=N/A speed=3.07x    frame= 1666 fps= 73 q=-0.0 size=N/A time=00:01:09.48 bitrate=N/A speed=3.06x    frame= 1705 fps= 73 q=-0.0 size=N/A time=00:01:11.11 bitrate=N/A speed=3.06x    frame= 1746 fps= 74 q=-0.0 size=N/A time=00:01:12.82 bitrate=N/A speed=3.07x    frame= 1784 fps= 74 q=-0.0 size=N/A time=00:01:14.40 bitrate=N/A speed=3.07x    frame= 1824 fps= 74 q=-0.0 size=N/A time=00:01:16.07 bitrate=N/A speed=3.07x    frame= 1862 fps= 74 q=-0.0 size=N/A time=00:01:17.66 bitrate=N/A speed=3.07x    frame= 1901 fps= 74 q=-0.0 size=N/A time=00:01:19.28 bitrate=N/A speed=3.07x    frame= 1938 fps= 74 q=-0.0 size=N/A time=00:01:20.83 bitrate=N/A speed=3.07x    frame= 1971 fps= 73 q=-0.0 size=N/A time=00:01:22.20 bitrate=N/A speed=3.07x    frame= 2015 fps= 74 q=-0.0 size=N/A time=00:01:24.04 bitrate=N/A speed=3.07x    frame= 2054 fps= 74 q=-0.0 size=N/A time=00:01:25.66 bitrate=N/A speed=3.08x    frame= 2090 fps= 74 q=-0.0 size=N/A time=00:01:27.17 bitrate=N/A speed=3.07x    frame= 2129 fps= 74 q=-0.0 size=N/A time=00:01:28.79 bitrate=N/A speed=3.07x    frame= 2168 fps= 74 q=-0.0 size=N/A time=00:01:30.42 bitrate=N/A speed=3.08x    frame= 2198 fps= 73 q=-0.0 size=N/A time=00:01:31.67 bitrate=N/A speed=3.06x    frame= 2240 fps= 74 q=-0.0 size=N/A time=00:01:33.42 bitrate=N/A speed=3.07x    frame= 2282 fps= 74 q=-0.0 size=N/A time=00:01:35.17 bitrate=N/A speed=3.08x    frame= 2320 fps= 74 q=-0.0 size=N/A time=00:01:36.76 bitrate=N/A speed=3.07x    frame= 2356 fps= 74 q=-0.0 size=N/A time=00:01:38.26 bitrate=N/A speed=3.07x    frame= 2397 fps= 74 q=-0.0 size=N/A time=00:01:39.97 bitrate=N/A speed=3.08x    frame= 2431 fps= 74 q=-0.0 size=N/A time=00:01:41.39 bitrate=N/A speed=3.07x    frame= 2464 fps= 74 q=-0.0 size=N/A time=00:01:42.76 bitrate=N/A speed=3.07x    frame= 2512 fps= 74 q=-0.0 size=N/A time=00:01:44.77 bitrate=N/A speed=3.08x    frame= 2547 fps= 74 q=-0.0 size=N/A time=00:01:46.23 bitrate=N/A speed=3.07x    frame= 2590 fps= 74 q=-0.0 size=N/A time=00:01:48.02 bitrate=N/A speed=3.08x    frame= 2627 fps= 74 q=-0.0 size=N/A time=00:01:49.56 bitrate=N/A speed=3.08x    frame= 2665 fps= 74 q=-0.0 size=N/A time=00:01:51.15 bitrate=N/A speed=3.08x    frame= 2702 fps= 74 q=-0.0 size=N/A time=00:01:52.69 bitrate=N/A speed=3.08x    frame= 2742 fps= 74 q=-0.0 size=N/A time=00:01:54.36 bitrate=N/A speed=3.08x    frame= 2782 fps= 74 q=-0.0 size=N/A time=00:01:56.03 bitrate=N/A speed=3.08x    frame= 2812 fps= 74 q=-0.0 size=N/A time=00:01:57.28 bitrate=N/A speed=3.07x    frame= 2857 fps= 74 q=-0.0 size=N/A time=00:01:59.16 bitrate=N/A speed=3.08x    frame= 2889 fps= 74 q=-0.0 size=N/A time=00:02:00.49 bitrate=N/A speed=3.07x    frame= 2929 fps= 74 q=-0.0 size=N/A time=00:02:02.16 bitrate=N/A speed=3.08x    frame= 2967 fps= 74 q=-0.0 size=N/A time=00:02:03.74 bitrate=N/A speed=3.08x    frame= 3005 fps= 74 q=-0.0 size=N/A time=00:02:05.33 bitrate=N/A speed=3.07x    frame= 3044 fps= 74 q=-0.0 size=N/A time=00:02:06.96 bitrate=N/A speed=3.08x    frame= 3082 fps= 74 q=-0.0 size=N/A time=00:02:08.54 bitrate=N/A speed=3.08x    frame= 3117 fps= 74 q=-0.0 size=N/A time=00:02:10.00 bitrate=N/A speed=3.07x    frame= 3159 fps= 74 q=-0.0 size=N/A time=00:02:11.75 bitrate=N/A speed=3.08x    frame= 3197 fps= 74 q=-0.0 size=N/A time=00:02:13.34 bitrate=N/A speed=3.08x    frame= 3234 fps= 74 q=-0.0 size=N/A time=00:02:14.88 bitrate=N/A speed=3.08x    frame= 3274 fps= 74 q=-0.0 size=N/A time=00:02:16.55 bitrate=N/A speed=3.08x    frame= 3312 fps= 74 q=-0.0 size=N/A time=00:02:18.13 bitrate=N/A speed=3.08x    frame= 3349 fps= 74 q=-0.0 size=N/A time=00:02:19.68 bitrate=N/A speed=3.08x    frame= 3388 fps= 74 q=-0.0 size=N/A time=00:02:21.30 bitrate=N/A speed=3.08x    frame= 3424 fps= 74 q=-0.0 size=N/A time=00:02:22.80 bitrate=N/A speed=3.08x    frame= 3463 fps= 74 q=-0.0 size=N/A time=00:02:24.43 bitrate=N/A speed=3.08x    frame= 3501 fps= 74 q=-0.0 size=N/A time=00:02:26.02 bitrate=N/A speed=3.08x    frame= 3539 fps= 74 q=-0.0 size=N/A time=00:02:27.60 bitrate=N/A speed=3.08x    frame= 3578 fps= 74 q=-0.0 size=N/A time=00:02:29.23 bitrate=N/A speed=3.08x    frame= 3615 fps= 74 q=-0.0 size=N/A time=00:02:30.77 bitrate=N/A speed=3.08x    frame= 3652 fps= 74 q=-0.0 size=N/A time=00:02:32.31 bitrate=N/A speed=3.08x    frame= 3691 fps= 74 q=-0.0 size=N/A time=00:02:33.94 bitrate=N/A speed=3.08x    frame= 3729 fps= 74 q=-0.0 size=N/A time=00:02:35.53 bitrate=N/A speed=3.08x    frame= 3760 fps= 74 q=-0.0 size=N/A time=00:02:36.82 bitrate=N/A speed=3.07x    frame= 3805 fps= 74 q=-0.0 size=N/A time=00:02:38.70 bitrate=N/A speed=3.08x    frame= 3833 fps= 74 q=-0.0 size=N/A time=00:02:39.86 bitrate=N/A speed=3.07x    frame= 3881 fps= 74 q=-0.0 size=N/A time=00:02:41.87 bitrate=N/A speed=3.08x    frame= 3917 fps= 74 q=-0.0 size=N/A time=00:02:43.37 bitrate=N/A speed=3.07x    frame= 3946 fps= 74 q=-0.0 size=N/A time=00:02:44.58 bitrate=N/A speed=3.07x    frame= 3993 fps= 74 q=-0.0 size=N/A time=00:02:46.54 bitrate=N/A speed=3.07x    frame= 4034 fps= 74 q=-0.0 size=N/A time=00:02:48.25 bitrate=N/A speed=3.08x    frame= 4069 fps= 74 q=-0.0 size=N/A time=00:02:49.71 bitrate=N/A speed=3.07x    frame= 4111 fps= 74 q=-0.0 size=N/A time=00:02:51.46 bitrate=N/A speed=3.08x    frame= 4150 fps= 74 q=-0.0 size=N/A time=00:02:53.08 bitrate=N/A speed=3.08x    [Parsed_psnr_10 @ 0000029a5a6014c0] PSNR y:45.930688 u:49.187429 v:49.448265 average:46.794936 min:38.075730 max:inf
[out#0/null @ 0000029a59c743c0] video:1790KiB audio:32584KiB subtitle:0KiB other streams:0KiB global headers:0KiB muxing overhead: unknown
frame= 4166 fps= 74 q=-0.0 Lsize=N/A time=00:02:53.75 bitrate=N/A speed=3.08x    
